<svg width="78" height="88" viewBox="0 0 78 88" fill="none" xmlns="http://www.w3.org/2000/svg">
<g id="&#240;&#159;&#166;&#134; icon &#34;instagram outlined&#34;">
<g id="Group">
<path id="Vector" d="M38.7587 86.6177C59.6122 86.6177 76.5173 67.5474 76.5173 44.023C76.5173 20.4985 59.6122 1.42822 38.7587 1.42822C17.9051 1.42822 1 20.4985 1 44.023C1 67.5474 17.9051 86.6177 38.7587 86.6177Z" stroke="#FF78C7" stroke-width="1.68391" stroke-linecap="round"/>
<g id="Group_2">
<path id="Vector_2" d="M24.9136 30.5443V57.5026C24.9136 58.6855 25.7614 59.6415 26.8097 59.6415H50.7072C51.7559 59.6415 52.6033 58.6852 52.6033 57.5026V30.5443C52.6033 29.3614 51.7555 28.4054 50.7072 28.4054H26.8097C25.7611 28.4054 24.9136 29.3618 24.9136 30.5443ZM19.8792 30.5443C19.8792 26.2257 22.9802 22.7261 26.8097 22.7261H50.7072C54.5356 22.7261 57.6378 26.2243 57.6378 30.5443V57.5026C57.6378 61.8212 54.5368 65.3208 50.7072 65.3208H26.8097C22.9814 65.3208 19.8792 61.8226 19.8792 57.5026V30.5443Z" fill="url(#paint0_linear_13_25)"/>
<path id="Vector_3" d="M39.3881 53.9631C34.8698 53.9631 31.207 49.8312 31.207 44.7342C31.207 39.6373 34.8698 35.5054 39.3881 35.5054C43.9063 35.5054 47.5691 39.6373 47.5691 44.7342C47.5691 49.8312 43.9063 53.9631 39.3881 53.9631ZM39.3881 48.2838C41.1259 48.2838 42.5346 46.6946 42.5346 44.7342C42.5346 42.7739 41.1259 41.1847 39.3881 41.1847C37.6503 41.1847 36.2415 42.7739 36.2415 44.7342C36.2415 46.6946 37.6503 48.2838 39.3881 48.2838Z" fill="url(#paint1_linear_13_25)"/>
<path id="Vector_4" d="M48.1982 35.5046C49.2409 35.5046 50.0862 34.5511 50.0862 33.3749C50.0862 32.1986 49.2409 31.2451 48.1982 31.2451C47.1556 31.2451 46.3103 32.1986 46.3103 33.3749C46.3103 34.5511 47.1556 35.5046 48.1982 35.5046Z" fill="url(#paint2_linear_13_25)"/>
</g>
</g>
</g>
<defs>
<linearGradient id="paint0_linear_13_25" x1="-9.05169" y1="-15.0641" x2="61.5994" y2="62.9319" gradientUnits="userSpaceOnUse">
<stop offset="0.0239582" stop-color="#FF0C9A" stop-opacity="0.94"/>
<stop offset="1" stop-color="#8C2B31"/>
</linearGradient>
<linearGradient id="paint1_linear_13_25" x1="18.6703" y1="19.1296" x2="49.2858" y2="52.9279" gradientUnits="userSpaceOnUse">
<stop offset="0.0239582" stop-color="#FF0C9A" stop-opacity="0.94"/>
<stop offset="1" stop-color="#8C2B31"/>
</linearGradient>
<linearGradient id="paint2_linear_13_25" x1="43.4172" y1="27.4661" x2="50.4823" y2="35.2657" gradientUnits="userSpaceOnUse">
<stop offset="0.0239582" stop-color="#FF0C9A" stop-opacity="0.94"/>
<stop offset="1" stop-color="#8C2B31"/>
</linearGradient>
</defs>
</svg>
