<svg width="78" height="88" viewBox="0 0 78 88" fill="none" xmlns="http://www.w3.org/2000/svg">
<g id="&#240;&#159;&#166;&#134; icon &#34;linkedin outlined&#34;">
<g id="Group">
<path id="Vector" d="M39 86.4595C59.9868 86.4595 77 67.3892 77 43.8648C77 20.3403 59.9868 1.27002 39 1.27002C18.0132 1.27002 1 20.3403 1 43.8648C1 67.3892 18.0132 86.4595 39 86.4595Z" stroke="#0A3586" stroke-width="1.68391" stroke-linecap="round"/>
<path id="Vector_2" fill-rule="evenodd" clip-rule="evenodd" d="M49.9344 44.5812C49.9344 41.7033 47.8983 39.4163 45.631 39.4163C43.8986 39.4163 42.367 39.4163 41.3495 41.8253C41.1616 42.2701 40.9442 43.5651 40.9442 44.2056V56.6433H35.4403V40.8453V33.053H41.1556L41.4376 36.1261H41.5609C42.3861 34.6659 44.2615 33.053 47.645 33.053C51.7695 33.053 55.4669 36.6403 55.4669 43.2158V56.6433H49.9344V44.5812ZM28.0296 30.2495C26.2289 30.2495 25.0669 28.8494 25.0669 27.1195C25.0669 25.3475 26.2665 23.9873 28.1035 23.9873C29.9404 23.9873 31.0661 25.3467 31.1037 27.1195C31.1044 28.8494 29.9411 30.2495 28.0296 30.2495ZM25.7299 56.6433V33.053H30.5627V56.6433H25.7299Z" fill="#0A3586"/>
</g>
</g>
</svg>
