<svg width="80" height="88" viewBox="0 0 80 88" fill="none" xmlns="http://www.w3.org/2000/svg">
<g id="&#240;&#159;&#166;&#134; icon &#34;skype outlined&#34;">
<g id="Group">
<path id="Vector" d="M40.006 86.9849C61.5484 86.9849 79.012 67.9146 79.012 44.3902C79.012 20.8657 61.5484 1.79541 40.006 1.79541C18.4636 1.79541 1 20.8657 1 44.3902C1 67.9146 18.4636 86.9849 40.006 86.9849Z" stroke="#5EA7FF" stroke-width="1.68391" stroke-linecap="round"/>
<path id="Vector_2" fill-rule="evenodd" clip-rule="evenodd" d="M55.3525 62.2404C50.2779 68.4022 43.3948 64.4244 43.3948 64.4244C38.5286 64.9702 34.7052 63.3319 34.7052 63.3319C26.0844 60.4467 23.8601 51.479 23.8601 51.479C21.8442 45.55 23.0257 40.9503 23.0257 40.9503C19.619 33.6178 24.4164 28.0028 24.4164 28.0028C30.1869 21.4529 37.0699 26.1318 37.0699 26.1318C47.4293 24.4153 52.9216 31.8251 52.9216 31.8251C59.3181 38.8445 57.372 48.9047 57.372 48.9047C60.0801 56.9385 55.3525 62.2404 55.3525 62.2404ZM36.722 36.7307C41.8374 33.7469 44.1477 37.6565 44.1477 37.6565C46.7616 41.991 48.4731 40.2216 48.4731 40.2216C51.1775 37.56 47.9729 34.3841 47.9729 34.3841C43.0623 29.2488 35.1392 32.3881 35.1392 32.3881C29.1866 34.631 30.4777 40.7948 30.4777 40.7948C32.268 46.3508 40.2582 47.05 40.2582 47.05C45.0039 47.4708 45.0456 50.4129 45.0456 50.4129C45.254 53.6823 40.5082 54.287 40.5082 54.287C36.4185 54.0563 35.5695 52.0918 35.5695 52.0918C33.7765 49.4312 33.29 48.8671 32.1738 48.8346C29.3696 48.7523 29.6768 52.1518 29.6768 52.1518C31.0494 58.594 39.0106 58.4436 39.0106 58.4436C50.0405 59.1906 50.6231 50.7849 50.6231 50.7849C51.1232 44.9961 44.5881 42.8955 44.5881 42.8955C39.9257 41.9615 37.2611 40.5611 37.2611 40.5611C34.4742 38.7866 36.722 36.7307 36.722 36.7307Z" fill="#5EA7FF"/>
</g>
</g>
</svg>
