<svg width="80" height="88" viewBox="0 0 80 88" fill="none" xmlns="http://www.w3.org/2000/svg">
<g id="&#240;&#159;&#166;&#134; icon &#34;twitter outlined&#34;">
<g id="Group">
<path id="Vector" d="M40 86.6172C61.5391 86.6172 79 67.5469 79 44.0225C79 20.4981 61.5391 1.42773 40 1.42773C18.4609 1.42773 1 20.4981 1 44.0225C1 67.5469 18.4609 86.6172 40 86.6172Z" stroke="#5EA7FF" stroke-width="1.68391" stroke-linecap="round"/>
<path id="Vector_2" fill-rule="evenodd" clip-rule="evenodd" d="M57.5702 32.5178C57.5702 32.5178 60.8026 32.2397 62.0998 31.1858C62.0998 31.1858 61.7889 32.3991 57.8992 36.238C57.8992 36.238 59.2089 56.9523 39.2535 62.0254C39.2535 62.0254 29.1333 64.3792 21.7998 58.375C21.7998 58.375 29.4768 59.8622 33.796 54.661C33.796 54.661 28.2245 54.7225 26.4624 48.5339C26.4624 48.5339 28.5661 49.0286 29.8164 48.41C29.8164 48.41 23.5055 46.9852 23.6193 39.4958C23.6193 39.4958 25.325 40.8581 26.8594 40.6102C26.8594 40.6102 21.1751 35.3476 24.6994 28.7882C24.6994 28.7882 32.3161 38.5939 41.7561 38.0117C41.5915 37.3097 41.5026 36.5744 41.5026 35.8142C41.5026 30.9389 45.1349 26.9844 49.6148 26.9844C51.8782 26.9844 53.9254 27.9946 55.3976 29.6225C56.4767 29.6423 58.6961 29.4329 60.9126 27.7051C60.9126 27.7061 61.0399 29.5944 57.5702 32.5178Z" fill="#5EA7FF"/>
</g>
</g>
</svg>
